<?xml version="1.0" standalone="no"?>
<!DOCTYPE svg PUBLIC "-//W3C//DTD SVG 20010904//EN"
 "http://www.w3.org/TR/2001/REC-SVG-20010904/DTD/svg10.dtd">
<svg version="1.0" xmlns="http://www.w3.org/2000/svg"
 width="401.000000pt" height="159.000000pt" viewBox="0 0 401.000000 159.000000"
 preserveAspectRatio="xMidYMid meet">

<g transform="translate(0.000000,159.000000) scale(0.100000,-0.100000)"
fill="#000000" stroke="none">
<path d="M279 858 c5 -13 53 -126 106 -253 54 -126 107 -252 118 -278 l20 -48
59 3 60 3 124 294 c68 162 124 296 124 298 0 2 -37 3 -82 1 l-82 -3 -69 -172
c-38 -95 -73 -173 -77 -173 -4 0 -38 79 -76 175 l-68 175 -83 0 c-81 0 -82 0
-74 -22z"/>
<path d="M960 580 l0 -300 168 2 167 3 3 63 3 62 -96 0 -95 0 0 235 0 235 -75
0 -75 0 0 -300z"/>
<path d="M1380 580 l0 -300 75 0 75 0 0 300 0 300 -75 0 -75 0 0 -300z"/>
<path d="M1660 815 l0 -64 115 -3 115 -3 -140 -230 -139 -230 242 -3 c133 -1
247 0 254 3 9 3 13 25 13 65 l0 60 -125 0 c-69 0 -125 2 -125 5 0 5 196 331
254 424 l26 41 -245 0 -245 0 0 -65z"/>
</g>
</svg>
