<svg id="golven_bg" xmlns="http://www.w3.org/2000/svg" xmlns:xlink="http://www.w3.org/1999/xlink" width="1796.701" height="515.568" viewBox="0 0 1796.701 515.568">
  <defs>
    <clipPath id="clip-path">
      <rect id="Rectangle_58" data-name="Rectangle 58" width="1796.702" height="515.568" fill="rgba(49,183,188,0.25)"/>
    </clipPath>
  </defs>
  <g id="Group_112" data-name="Group 112" transform="translate(0 0)" clip-path="url(#clip-path)">
    <path id="Path_228" data-name="Path 228" d="M393.055,101.946c88.088,4.292,174.807,28.74,273.781,65.195,81.431,30.047,170.639,67.5,271.915,113.78,66.874,26.5,131.447,57.854,199.317,78.383,49.643,14.992,100.592,24.946,154.4,26,108.119-.311,216.549-27.683,319.442-76.766,60.529-28.927,118.819-64.2,174.06-102.645,24.7-17.17,2.675-54.993-24.759-42.613-58.041,26.128-118.2,49.207-179.161,67-94.06,27.5-188.866,40.933-280.935,28.118-41.555-4.852-79.752-17.73-117.45-32.224-63.08-24.2-123.484-55.8-185.88-84.169C889.668,99.4,795.359,62.754,708.018,38.8,592.621,7.2,490.474-6.235,390.878,2.723c-99.347,8.958-195.647,38.943-299.971,98.725C64.966,116.316,38.652,132.926,11.715,151.4c-25.941,17.854-4.79,58.165,24.448,46.408,121.183-48.834,270.795-100.032,356.892-95.864" transform="translate(-0.002 0.001)" fill="rgba(49,183,188,0.25)" fill-rule="evenodd"/>
    <path id="Path_229" data-name="Path 229" d="M1173.784,304.863c-48.523-6.594-122.24-18.787-166.844-36.206C945.727,244.707,887.748,212.3,828.712,179.2c-39.938-22.4-79.627-45.1-120.436-65.568-28.243-14.184-56.8-27.31-86.035-38.134A674.1,674.1,0,0,0,480.9,40.414c-72.287-6.781-142.707-4.168-211.821,10.14-88.834,18.352-172.94,52.131-256.3,89.767-4.852,2.177-2.737,9.518,2.488,8.647,52.566-8.834,153.282-24.821,212.692-28.118a999.458,999.458,0,0,1,120.561.809c38.632,2.488,77.077,7.589,115.708,16.8,41.058,8.336,80.5,23.017,120.312,38.01,27.061,10.2,54.246,20.529,81.431,31.353,41.867,16.672,83.8,33.593,126.035,49.643,66.5,25.319,132.816,48.087,200.81,60.591,54.744,10.078,139.6,3.235,189.239-2.3,26.936-5.6-8.274-10.949-8.336-10.949Z" transform="translate(52.494 192.359)" fill="rgba(49,183,188,0.25)" fill-rule="evenodd"/>
  </g>
</svg>
