<svg xmlns="http://www.w3.org/2000/svg" width="856.902" height="207.579" viewBox="0 0 856.902 207.579">
  <path id="Path_236" data-name="Path 236" d="M853.6,231.123c-35.173-4.78-88.608-13.618-120.94-26.244-44.372-17.361-86.4-40.854-129.192-64.844-28.95-16.234-57.719-32.692-87.3-47.528a616.331,616.331,0,0,0-62.364-27.642A488.636,488.636,0,0,0,351.357,39.432c-52.4-4.915-103.444-3.021-153.542,7.35C133.422,60.084,72.456,84.57,12.031,111.851c-3.517,1.578-1.984,6.9,1.8,6.268,38.1-6.4,111.11-17.992,154.174-20.382a724.482,724.482,0,0,1,87.39.586A497.671,497.671,0,0,1,339.272,110.5c29.761,6.042,58.351,16.684,87.21,27.552,19.616,7.4,39.321,14.881,59.027,22.727,30.348,12.085,60.741,24.35,91.359,35.984,48.2,18.353,96.274,34.857,145.561,43.921,39.682,7.305,101.189,2.345,137.173-1.668,19.525-4.058-6-7.936-6.042-7.936Z" transform="translate(-10.055 -36.844)" fill="#f7c97c" fill-rule="evenodd"/>
</svg>
