<?xml version="1.0" encoding="UTF-8" standalone="no"?>
<!-- Created with Inkscape (http://www.inkscape.org/) -->

<svg
   width="200"
   height="160"
   viewBox="0 0 52.916667 42.333335"
   version="1.1"
   id="svg5"
   inkscape:version="1.1.2 (0a00cf5339, 2022-02-04)"
   sodipodi:docname="VLIZ_LOGO_OpSci.svg"
   xmlns:inkscape="http://www.inkscape.org/namespaces/inkscape"
   xmlns:sodipodi="http://sodipodi.sourceforge.net/DTD/sodipodi-0.dtd"
   xmlns="http://www.w3.org/2000/svg"
   xmlns:svg="http://www.w3.org/2000/svg">
  <sodipodi:namedview
     id="namedview7"
     pagecolor="#ffffff"
     bordercolor="#666666"
     borderopacity="1.0"
     inkscape:pageshadow="2"
     inkscape:pageopacity="0.0"
     inkscape:pagecheckerboard="0"
     inkscape:document-units="mm"
     showgrid="false"
     fit-margin-top="0"
     fit-margin-left="0"
     fit-margin-right="0"
     fit-margin-bottom="0"
     units="px"
     width="200px"
     inkscape:zoom="0.75187991"
     inkscape:cx="315.87491"
     inkscape:cy="448.87487"
     inkscape:window-width="1920"
     inkscape:window-height="1016"
     inkscape:window-x="0"
     inkscape:window-y="27"
     inkscape:window-maximized="1"
     inkscape:current-layer="g885" />
  <defs
     id="defs2" />
  <g
     inkscape:label="Layer 1"
     inkscape:groupmode="layer"
     id="layer1"
     transform="translate(-21.506029,-29.851269)">
    <g
       id="g885"
       transform="matrix(0.26458333,0,0,0.26458333,22.109203,29.851147)">
      <g
         id="g905">
        <path
           d="m 163.1,109.113 h 24.877 v 13.066 H 137.2 l 28.105,-46.29 H 141.923 V 62.823 h 49.123 z m -48.735,-46.29 h 15.43 v 59.356 h -15.43 z m -26.45,0 v 46.29 h 18.5 v 13.066 H 72.485 V 62.823 Z m -67.147,0 14.326,36.135 14.4,-36.135 H 66.267 L 41.234,122.179 H 28.955 L 4.0000003,62.823 Z"
           id="path2"
           style="fill:#354d9b;fill-opacity:1" />
        <path
           d="m 55.116,12 c 6.916,0.337 13.725,2.257 21.5,5.119 6.394,2.359 13.4,5.3 21.35,8.934 5.251,2.081 10.321,4.543 15.65,6.154 a 44.665,44.665 0 0 0 12.123,2.042 58.78,58.78 0 0 0 25.082,-6.027 98.345,98.345 0 0 0 13.667,-8.055 1.943,1.943 0 0 0 -1.944,-3.346 108.553,108.553 0 0 1 -14.067,5.261 c -7.385,2.159 -14.829,3.214 -22.058,2.208 a 37.771,37.771 0 0 1 -9.222,-2.53 c -4.953,-1.9 -9.7,-4.381 -14.595,-6.609 A 232.639,232.639 0 0 0 79.85,7.051 C 70.788,4.566 62.766,3.511 54.946,4.214 a 56.424,56.424 0 0 0 -23.558,7.752 91.835,91.835 0 0 0 -6.218,3.922 2.072,2.072 0 0 0 1.92,3.644 C 36.609,15.7 48.356,11.678 55.116,12"
           class="swoosh"
           id="path4"
           style="fill:#65c9cd;fill-opacity:1" />
        <path
           d="m 120.539,43.04 c -3.81,-0.518 -9.6,-1.475 -13.1,-2.843 A 113.882,113.882 0 0 1 93.444,33.174 c -3.136,-1.758 -6.252,-3.541 -9.456,-5.148 a 66.763,66.763 0 0 0 -6.755,-2.994 52.928,52.928 0 0 0 -11.1,-2.755 55.785,55.785 0 0 0 -16.632,0.8 96.753,96.753 0 0 0 -20.124,7.048 0.356,0.356 0 0 0 0.2,0.679 c 4.127,-0.694 12.035,-1.949 16.7,-2.208 a 78.475,78.475 0 0 1 9.467,0.056 53.908,53.908 0 0 1 9.085,1.319 62.082,62.082 0 0 1 9.447,2.984 c 2.125,0.8 4.259,1.612 6.394,2.462 3.287,1.309 6.579,2.638 9.9,3.9 a 90.849,90.849 0 0 0 15.767,4.757 c 4.3,0.791 10.961,0.254 14.859,-0.181 2.115,-0.44 -0.65,-0.86 -0.655,-0.86 z"
           class="swoosh"
           id="path6"
           style="fill:#65c9cd;fill-opacity:1" />
        <g
           aria-label="open science"
           id="text4541"
           style="font-size:29.6246px;line-height:1.25">
          <path
             d="m 9.1553685,135.1614 q -2.1408402,0 -3.384842,1.67796 -1.2440017,1.66349 -1.2440017,4.57098 0,2.90749 1.2295366,4.58545 1.2440017,1.66349 3.3993071,1.66349 2.1263755,0 3.3703765,-1.67796 1.244002,-1.67795 1.244002,-4.57098 0,-2.87856 -1.244002,-4.55652 -1.244001,-1.69242 -3.3703765,-1.69242 z m 0,-2.25656 q 3.4716325,0 5.4533565,2.25656 1.981724,2.25656 1.981724,6.24894 0,3.97791 -1.981724,6.24894 -1.981724,2.25656 -5.4533565,2.25656 -3.4860979,0 -5.4678216,-2.25656 -1.9672586,-2.27103 -1.9672586,-6.24894 0,-3.99238 1.9672586,-6.24894 1.9817237,-2.25656 5.4678216,-2.25656 z"
             style="fill:#65c9cd"
             id="path831" />
          <path
             d="m 23.57711,147.06621 v 8.59229 h -2.67605 v -22.3631 h 2.67605 v 2.45907 q 0.838978,-1.44651 2.11191,-2.14084 1.287397,-0.70879 3.066609,-0.70879 2.950888,0 4.78796,2.34335 1.851538,2.34336 1.851538,6.16215 0,3.8188 -1.851538,6.16215 -1.837072,2.34335 -4.78796,2.34335 -1.779212,0 -3.066609,-0.69432 -1.272932,-0.7088 -2.11191,-2.15531 z m 9.055176,-5.65587 q 0,-2.93642 -1.215072,-4.59991 -1.200606,-1.67796 -3.312516,-1.67796 -2.11191,0 -3.326981,1.67796 -1.200607,1.66349 -1.200607,4.59991 0,2.93642 1.200607,4.61438 1.215071,1.66349 3.326981,1.66349 2.11191,0 3.312516,-1.66349 1.215072,-1.67796 1.215072,-4.61438 z"
             style="fill:#65c9cd"
             id="path833" />
          <path
             d="m 53.664597,140.73048 v 1.30186 H 41.427091 q 0.173582,2.74838 1.649026,4.19489 1.489909,1.43205 4.137029,1.43205 1.533304,0 2.965353,-0.37609 1.446513,-0.3761 2.864097,-1.12828 v 2.51693 q -1.432049,0.60754 -2.936423,0.92577 -1.504374,0.31823 -3.052144,0.31823 -3.876656,0 -6.147683,-2.25656 -2.256561,-2.25656 -2.256561,-6.10429 0,-3.97791 2.14084,-6.3068 2.155306,-2.34335 5.80052,-2.34335 3.269121,0 5.164054,2.11191 1.909398,2.09745 1.909398,5.71373 z m -2.661585,-0.78112 q -0.02893,-2.18423 -1.229537,-3.48609 -1.186141,-1.30187 -3.1534,-1.30187 -2.227631,0 -3.572888,1.25847 -1.330793,1.25847 -1.533305,3.54396 z"
             style="fill:#65c9cd"
             id="path835" />
          <path
             d="m 71.500108,139.71792 v 9.77843 h -2.661585 v -9.69164 q 0,-2.29995 -0.896838,-3.4427 -0.896839,-1.14275 -2.690515,-1.14275 -2.155306,0 -3.399308,1.37419 -1.244001,1.37419 -1.244001,3.74647 v 9.15643 H 57.93181 V 133.2954 h 2.676051 v 2.51693 q 0.954699,-1.46097 2.242096,-2.18423 1.301862,-0.72326 2.994283,-0.72326 2.791771,0 4.22382,1.73582 1.432048,1.72135 1.432048,5.07726 z"
             style="fill:#65c9cd"
             id="path837" />
          <path
             d="m 96.553721,133.77275 v 2.51693 q -1.128281,-0.5786 -2.343352,-0.8679 -1.215072,-0.28931 -2.516934,-0.28931 -1.981724,0 -2.979818,0.60754 -0.98363,0.60753 -0.98363,1.82261 0,0.92576 0.708792,1.46097 0.708792,0.52075 2.849632,0.9981 l 0.911304,0.20251 q 2.835166,0.60754 4.021308,1.72135 1.200606,1.09935 1.200606,3.08108 0,2.25656 -1.793677,3.57288 -1.779212,1.31633 -4.903681,1.31633 -1.301863,0 -2.719446,-0.26037 -1.403118,-0.24591 -2.965353,-0.75219 v -2.74837 q 1.475444,0.76665 2.907492,1.15721 1.432049,0.37609 2.835167,0.37609 1.880468,0 2.893028,-0.63646 1.012559,-0.65094 1.012559,-1.82261 0,-1.08489 -0.737722,-1.66349 -0.723257,-0.57861 -3.196795,-1.11382 l -0.925769,-0.21698 q -2.473538,-0.52074 -3.572888,-1.59116 -1.099351,-1.08489 -1.099351,-2.96535 0,-2.28549 1.620095,-3.5295 1.620096,-1.244 4.599914,-1.244 1.475444,0 2.777306,0.21698 1.301862,0.21698 2.401213,0.65093 z"
             style="fill:#65c9cd"
             id="path839" />
          <path
             d="m 113.31882,133.9174 v 2.488 q -1.12828,-0.622 -2.27103,-0.92576 -1.12828,-0.31824 -2.28549,-0.31824 -2.58926,0 -4.02131,1.64903 -1.43205,1.63456 -1.43205,4.59991 0,2.96535 1.43205,4.61438 1.43205,1.63456 4.02131,1.63456 1.15721,0 2.28549,-0.30377 1.14275,-0.31823 2.27103,-0.94023 v 2.45907 q -1.11382,0.52075 -2.31443,0.78112 -1.18614,0.26037 -2.53139,0.26037 -3.65968,0 -5.81499,-2.29995 -2.1553,-2.29996 -2.1553,-6.20555 0,-3.96345 2.16977,-6.23447 2.18423,-2.27103 5.9741,-2.27103 1.22953,0 2.40121,0.26037 1.17168,0.24591 2.27103,0.75219 z"
             style="fill:#65c9cd"
             id="path841" />
          <path
             d="m 117.94766,133.2954 h 2.66158 v 16.20095 h -2.66158 z m 0,-6.3068 h 2.66158 v 3.37038 h -2.66158 z"
             style="fill:#65c9cd"
             id="path843" />
          <path
             d="m 140.03593,140.73048 v 1.30186 h -12.23751 q 0.17358,2.74838 1.64903,4.19489 1.48991,1.43205 4.13703,1.43205 1.5333,0 2.96535,-0.37609 1.44651,-0.3761 2.8641,-1.12828 v 2.51693 q -1.43205,0.60754 -2.93643,0.92577 -1.50437,0.31823 -3.05214,0.31823 -3.87666,0 -6.14768,-2.25656 -2.25656,-2.25656 -2.25656,-6.10429 0,-3.97791 2.14084,-6.3068 2.1553,-2.34335 5.80052,-2.34335 3.26912,0 5.16405,2.11191 1.9094,2.09745 1.9094,5.71373 z m -2.66159,-0.78112 q -0.0289,-2.18423 -1.22953,-3.48609 -1.18615,-1.30187 -3.1534,-1.30187 -2.22764,0 -3.57289,1.25847 -1.3308,1.25847 -1.53331,3.54396 z"
             style="fill:#65c9cd"
             id="path845" />
          <path
             d="m 157.87144,139.71792 v 9.77843 h -2.66158 v -9.69164 q 0,-2.29995 -0.89684,-3.4427 -0.89684,-1.14275 -2.69052,-1.14275 -2.1553,0 -3.3993,1.37419 -1.24401,1.37419 -1.24401,3.74647 v 9.15643 h -2.67605 V 133.2954 h 2.67605 v 2.51693 q 0.9547,-1.46097 2.2421,-2.18423 1.30186,-0.72326 2.99428,-0.72326 2.79178,0 4.22382,1.73582 1.43205,1.72135 1.43205,5.07726 z"
             style="fill:#65c9cd"
             id="path847" />
          <path
             d="m 174.83904,133.9174 v 2.488 q -1.12828,-0.622 -2.27102,-0.92576 -1.12829,-0.31824 -2.2855,-0.31824 -2.58926,0 -4.0213,1.64903 -1.43205,1.63456 -1.43205,4.59991 0,2.96535 1.43205,4.61438 1.43204,1.63456 4.0213,1.63456 1.15721,0 2.2855,-0.30377 1.14274,-0.31823 2.27102,-0.94023 v 2.45907 q -1.11381,0.52075 -2.31442,0.78112 -1.18614,0.26037 -2.5314,0.26037 -3.65968,0 -5.81498,-2.29995 -2.15531,-2.29996 -2.15531,-6.20555 0,-3.96345 2.16977,-6.23447 2.18424,-2.27103 5.9741,-2.27103 1.22954,0 2.40122,0.26037 1.17167,0.24591 2.27102,0.75219 z"
             style="fill:#65c9cd"
             id="path849" />
          <path
             d="m 193.32549,140.73048 v 1.30186 h -12.2375 q 0.17358,2.74838 1.64902,4.19489 1.48991,1.43205 4.13703,1.43205 1.53331,0 2.96536,-0.37609 1.44651,-0.3761 2.86409,-1.12828 v 2.51693 q -1.43205,0.60754 -2.93642,0.92577 -1.50437,0.31823 -3.05214,0.31823 -3.87666,0 -6.14769,-2.25656 -2.25656,-2.25656 -2.25656,-6.10429 0,-3.97791 2.14084,-6.3068 2.15531,-2.34335 5.80052,-2.34335 3.26912,0 5.16406,2.11191 1.90939,2.09745 1.90939,5.71373 z m -2.66158,-0.78112 q -0.0289,-2.18423 -1.22954,-3.48609 -1.18614,-1.30187 -3.1534,-1.30187 -2.22763,0 -3.57289,1.25847 -1.33079,1.25847 -1.5333,3.54396 z"
             style="fill:#65c9cd"
             id="path851" />
        </g>
      </g>
    </g>
  </g>
</svg>
