<?xml version="1.0" standalone="no"?>
<!DOCTYPE svg PUBLIC "-//W3C//DTD SVG 20010904//EN"
 "http://www.w3.org/TR/2001/REC-SVG-20010904/DTD/svg10.dtd">
<svg version="1.0" xmlns="http://www.w3.org/2000/svg"
 width="800.000000pt" height="800.000000pt" viewBox="0 0 800.000000 800.000000"
 preserveAspectRatio="xMidYMid meet">
<metadata>
Created by potrace 1.14, written by Peter Selinger 2001-2017
</metadata>
<g transform="translate(0.000000,800.000000) scale(0.100000,-0.100000)"
fill="#000000" stroke="none">
<path d="M2055 6515 c-373 -60 -712 -196 -1060 -425 -134 -89 -157 -132 -104
-189 31 -33 75 -26 236 35 348 133 640 218 853 250 389 57 886 -79 1860 -508
786 -347 971 -405 1321 -415 369 -10 650 51 1068 234 137 59 176 80 356 189
241 146 303 199 292 246 -20 78 -65 79 -232 8 -251 -108 -578 -208 -819 -252
-141 -25 -416 -35 -566 -19 -238 25 -356 68 -967 350 -293 136 -888 348 -1164
415 -301 74 -405 87 -709 92 -206 2 -297 0 -365 -11z"/>
<path d="M2140 5754 c-276 -32 -647 -145 -987 -300 -75 -34 -99 -62 -43 -51
75 16 528 77 640 88 243 23 654 -8 882 -65 161 -41 278 -83 763 -273 413 -162
691 -258 870 -299 101 -23 149 -28 306 -32 253 -6 509 19 433 42 -11 3 -76 14
-147 26 -177 28 -301 56 -402 90 -144 49 -395 173 -720 358 -374 212 -680 342
-925 391 -207 42 -452 51 -670 25z"/>
<path d="M182 4032 c-141 -2 -183 -5 -179 -15 3 -6 75 -178 160 -382 86 -203
322 -766 525 -1250 l370 -880 268 0 268 0 112 265 c645 1532 947 2246 951
2253 2 4 -159 7 -359 7 l-363 -1 -284 -712 c-156 -392 -293 -734 -305 -762
l-22 -50 -153 385 c-84 212 -218 552 -298 755 -81 204 -149 373 -152 376 -8 9
-308 15 -539 11z"/>
<path d="M2927 4033 c-4 -3 -7 -575 -7 -1270 l0 -1263 725 0 725 0 0 280 0
280 -395 0 -395 0 -2 988 -3 987 -321 3 c-176 1 -323 -1 -327 -5z"/>
<path d="M4707 4033 c-4 -3 -7 -575 -7 -1270 l0 -1263 335 0 335 0 -2 1268 -3
1267 -326 3 c-179 1 -328 -1 -332 -5z"/>
<path d="M5888 4035 c-5 -5 -8 -134 -8 -287 l0 -278 490 0 c340 0 490 -3 490
-11 0 -5 -149 -256 -332 -557 -509 -840 -757 -1250 -805 -1330 l-43 -72 1085
0 1085 0 0 280 0 280 -526 0 c-417 0 -525 3 -521 13 2 6 254 426 559 932 627
1040 612 1015 607 1020 -8 7 -2074 17 -2081 10z"/>
</g>
</svg>